<svg xmlns="http://www.w3.org/2000/svg" version="1.1" xmlns:xlink="http://www.w3.org/1999/xlink" width="120" height="120" x="0" y="0" viewBox="0 0 682.667 682.667" style="enable-background:new 0 0 512 512" xml:space="preserve" class="">
  <g>
    <defs>
      <clipPath id="a" clipPathUnits="userSpaceOnUse">
        <path d="M0 512h512V0H0Z" fill="#000000" opacity="1" data-original="#000000"/>
      </clipPath>
    </defs>
    <g clip-path="url(#a)" transform="matrix(1.33333 0 0 -1.33333 0 682.667)">
      <path d="M0 0c-21.053 0-38.119 17.066-38.119 38.119 0 21.052 17.066 38.119 38.119 38.119 21.052 0 38.119-17.067 38.119-38.119C38.119 17.066 21.052 0 0 0m0 101.948c-35.251 0-63.829-28.577-63.829-63.829C-63.829 2.867-35.251-25.71 0-25.71c35.251 0 63.829 28.577 63.829 63.829 0 35.252-28.578 63.829-63.829 63.829" style="fill-opacity:1;fill-rule:nonzero;stroke:none" transform="translate(370.158 320.688)" fill="#fed2a4" data-original="#fed2a4"/>
      <path d="M0 0c-21.053 0-38.119 17.066-38.119 38.119 0 21.052 17.066 38.119 38.119 38.119 21.052 0 38.119-17.067 38.119-38.119C38.119 17.066 21.052 0 0 0Zm29.842 94.556C20.937 99.275 10.78 101.948 0 101.948c-35.251 0-63.829-28.577-63.829-63.829C-63.829 2.867-35.251-25.71 0-25.71c35.251 0 63.829 28.577 63.829 63.829 0 11.741-3.17 22.742-8.702 32.193" style="stroke-width:15;stroke-linecap:round;stroke-linejoin:round;stroke-miterlimit:10;stroke-dasharray:none;stroke-opacity:1" transform="translate(370.158 320.688)" fill="none" stroke="#000000" stroke-width="15" stroke-linecap="round" stroke-linejoin="round" stroke-miterlimit="10" stroke-dasharray="none" stroke-opacity="" data-original="#000000"/>
      <path d="M0 0c-21.053 0-38.119 17.066-38.119 38.119 0 21.052 17.066 38.119 38.119 38.119 21.052 0 38.119-17.067 38.119-38.119C38.119 17.066 21.052 0 0 0m0 101.948c-35.252 0-63.829-28.577-63.829-63.829 0-35.252 28.577-63.828 63.829-63.828 35.251 0 63.829 28.576 63.829 63.828S35.251 101.948 0 101.948" style="fill-opacity:1;fill-rule:nonzero;stroke:none" transform="translate(116.013 258.738)" fill="#fed2a4" data-original="#fed2a4"/>
      <path d="M0 0c-21.053 0-38.119 17.066-38.119 38.119 0 21.052 17.066 38.119 38.119 38.119 21.052 0 38.119-17.067 38.119-38.119C38.119 17.066 21.052 0 0 0Zm0 101.948c-35.252 0-63.829-28.577-63.829-63.829 0-35.252 28.577-63.828 63.829-63.828 35.251 0 63.829 28.576 63.829 63.828S35.251 101.948 0 101.948z" style="stroke-width:15;stroke-linecap:round;stroke-linejoin:round;stroke-miterlimit:10;stroke-dasharray:none;stroke-opacity:1" transform="translate(116.013 258.738)" fill="none" stroke="#000000" stroke-width="15" stroke-linecap="round" stroke-linejoin="round" stroke-miterlimit="10" stroke-dasharray="none" stroke-opacity="" data-original="#000000"/>
      <path d="M0 0c31.331-31.33 81.366-32.554 114.158-3.672 2.179 1.919 2.315 5.268.262 7.321L3.65 114.419c-2.053 2.054-5.402 1.917-7.322-.261C-32.554 81.366-31.33 31.33 0 0" style="fill-opacity:1;fill-rule:nonzero;stroke:none" transform="translate(275.57 323.438)" fill="#fb2b3a" data-original="#fb2b3a"/>
      <path d="M0 0c-29.791 29.791-32.34 76.482-7.69 109.192l-16.212 16.212c-2.053 2.053-5.403 1.917-7.322-.262-28.882-32.792-27.658-82.828 3.672-114.158C-15.512-1.055-.708-8.63 14.816-11.778A83.603 83.603 0 0 0 0 0" style="fill-opacity:1;fill-rule:nonzero;stroke:none" transform="translate(303.121 312.453)" fill="#e41f2d" data-original="#e41f2d"/>
      <path d="M0 0c31.331-31.33 81.366-32.554 114.158-3.672 2.179 1.919 2.315 5.268.262 7.321L3.65 114.419c-2.053 2.054-5.402 1.917-7.322-.261C-32.554 81.366-31.33 31.33 0 0Z" style="stroke-width:15;stroke-linecap:round;stroke-linejoin:round;stroke-miterlimit:10;stroke-dasharray:none;stroke-opacity:1" transform="translate(275.57 323.438)" fill="none" stroke="#000000" stroke-width="15" stroke-linecap="round" stroke-linejoin="round" stroke-miterlimit="10" stroke-dasharray="none" stroke-opacity="" data-original="#000000"/>
      <path d="m0 0 8.059 8.059" style="stroke-width:15;stroke-linecap:round;stroke-linejoin:round;stroke-miterlimit:10;stroke-dasharray:none;stroke-opacity:1" transform="translate(297.534 347.014)" fill="none" stroke="#000000" stroke-width="15" stroke-linecap="round" stroke-linejoin="round" stroke-miterlimit="10" stroke-dasharray="none" stroke-opacity="" data-original="#000000"/>
      <path d="M0 0h11.396" style="stroke-width:15;stroke-linecap:round;stroke-linejoin:round;stroke-miterlimit:10;stroke-dasharray:none;stroke-opacity:1" transform="translate(283.653 382.806)" fill="none" stroke="#000000" stroke-width="15" stroke-linecap="round" stroke-linejoin="round" stroke-miterlimit="10" stroke-dasharray="none" stroke-opacity="" data-original="#000000"/>
      <path d="M0 0v11.397" style="stroke-width:15;stroke-linecap:round;stroke-linejoin:round;stroke-miterlimit:10;stroke-dasharray:none;stroke-opacity:1" transform="translate(332.659 331.52)" fill="none" stroke="#000000" stroke-width="15" stroke-linecap="round" stroke-linejoin="round" stroke-miterlimit="10" stroke-dasharray="none" stroke-opacity="" data-original="#000000"/>
      <path d="M0 0c27.806 27.806 29.025 72.131 3.658 101.385a5.01 5.01 0 0 1-7.324.261l-97.98-97.98a5.01 5.01 0 0 1 .26-7.324C-72.131-29.025-27.806-27.806 0 0" style="fill-opacity:1;fill-rule:nonzero;stroke:none" transform="translate(218.122 400.581)" fill="#fd4755" data-original="#fd4755"/>
      <path d="M0 0a4.942 4.942 0 0 0-1.367 1.978L-18.79-15.445a5.011 5.011 0 0 1 .261-7.324c29.255-25.367 73.58-24.148 101.386 3.658a74.437 74.437 0 0 1 13.24 17.963C68.206-24.195 27.463-23.814 0 0" style="fill-opacity:1;fill-rule:nonzero;stroke:none" transform="translate(135.265 419.692)" fill="#fb2b3a" data-original="#fb2b3a"/>
      <path d="m0 0-50.524-50.524a5.01 5.01 0 0 1 .26-7.324c29.255-25.367 73.58-24.148 101.386 3.658C78.928-26.384 80.147 17.94 54.78 47.195a5.01 5.01 0 0 1-7.324.261L25 25" style="stroke-width:15;stroke-linecap:round;stroke-linejoin:round;stroke-miterlimit:10;stroke-dasharray:none;stroke-opacity:1" transform="translate(167 454.772)" fill="none" stroke="#000000" stroke-width="15" stroke-linecap="round" stroke-linejoin="round" stroke-miterlimit="10" stroke-dasharray="none" stroke-opacity="" data-original="#000000"/>
      <path d="m0 0-7.188 7.188" style="stroke-width:15;stroke-linecap:round;stroke-linejoin:round;stroke-miterlimit:10;stroke-dasharray:none;stroke-opacity:1" transform="translate(197.093 420.172)" fill="none" stroke="#000000" stroke-width="15" stroke-linecap="round" stroke-linejoin="round" stroke-miterlimit="10" stroke-dasharray="none" stroke-opacity="" data-original="#000000"/>
      <path d="M0 0v10.165" style="stroke-width:15;stroke-linecap:round;stroke-linejoin:round;stroke-miterlimit:10;stroke-dasharray:none;stroke-opacity:1" transform="translate(165.168 407.791)" fill="none" stroke="#000000" stroke-width="15" stroke-linecap="round" stroke-linejoin="round" stroke-miterlimit="10" stroke-dasharray="none" stroke-opacity="" data-original="#000000"/>
      <path d="M0 0h-10.166" style="stroke-width:15;stroke-linecap:round;stroke-linejoin:round;stroke-miterlimit:10;stroke-dasharray:none;stroke-opacity:1" transform="translate(210.912 451.502)" fill="none" stroke="#000000" stroke-width="15" stroke-linecap="round" stroke-linejoin="round" stroke-miterlimit="10" stroke-dasharray="none" stroke-opacity="" data-original="#000000"/>
      <path d="M0 0c-3.577 0-7.066-.371-10.436-1.071 4.365 12.756 1.281 29.467-9.312 43.404-15.111 19.88-39.759 26.574-55.052 14.95-13.406-10.19-15.171-31.072-5.224-49.462-16.815-3.029-29.789-13.744-31.736-28.032-2.594-19.033 15.361-37.197 40.104-40.569 7.508-1.024 14.773-.56 21.331 1.104 4.096-24.097 25.061-42.45 50.325-42.45 28.201 0 51.063 22.862 51.063 51.063C51.063-22.862 28.201 0 0 0" style="fill-opacity:1;fill-rule:nonzero;stroke:none" transform="translate(192.607 244.73)" fill="#81d261" data-original="#81d261"/>
      <path d="M0 0c-3.577 0-7.066-.371-10.436-1.071 4.365 12.756 1.281 29.467-9.312 43.404-15.111 19.88-39.759 26.574-55.052 14.95-13.406-10.19-15.171-31.072-5.224-49.462-16.815-3.029-29.789-13.744-31.736-28.032-2.594-19.033 15.361-37.197 40.104-40.569 7.508-1.024 14.773-.56 21.331 1.104 4.096-24.097 25.061-42.45 50.325-42.45 28.201 0 51.063 22.862 51.063 51.063C51.063-22.862 28.201 0 0 0Z" style="stroke-width:15;stroke-linecap:round;stroke-linejoin:round;stroke-miterlimit:10;stroke-dasharray:none;stroke-opacity:1" transform="translate(192.607 244.73)" fill="none" stroke="#000000" stroke-width="15" stroke-linecap="round" stroke-linejoin="round" stroke-miterlimit="10" stroke-dasharray="none" stroke-opacity="" data-original="#000000"/>
      <path d="M0 0c-4.737 8.205-3.328 18.891 2.748 29.436-25.491 3.106-44.677 16.627-44.677 32.838 0 11.915 10.373 22.371 25.988 28.312a71.506 71.506 0 0 0-5.495 4.939c-21.603 21.603-25.476 52.756-8.65 69.581 16.825 16.826 47.978 12.953 69.581-8.65a71.212 71.212 0 0 0 5.008-5.58c5.941 15.622 16.398 25.999 28.316 25.999 16.188 0 29.695-19.131 32.826-44.567 10.526 6.046 21.186 7.44 29.375 2.712 16.027-9.254 16.518-38.41 1.095-65.123-10.09-17.476-24.49-29.573-37.731-33.261-3.688-13.24-15.785-27.641-33.261-37.731C38.41-16.518 9.253-16.027 0 0" style="fill-opacity:1;fill-rule:nonzero;stroke:none" transform="translate(182.47 175.3)" fill="#017b4e" data-original="#017b4e"/>
      <path d="M0 0c-4.737 8.205-3.328 18.891 2.748 29.436-25.491 3.106-44.677 16.627-44.677 32.838 0 10.155 7.535 19.25 19.428 25.393 2.94 1.52 3.461 5.468 1.118 7.805a1.324 1.324 0 0 1-.053.053c-21.603 21.603-25.476 52.756-8.65 69.581 3.317 3.318 7.198 5.819 11.447 7.55-16.327 5.52-33.082 3.276-43.907-7.55-16.826-16.825-12.953-47.978 8.65-69.581a71.694 71.694 0 0 1 5.495-4.939c-15.614-5.941-25.988-16.397-25.988-28.312 0-16.211 19.186-29.732 44.678-32.838C-35.787 18.891-37.196 8.205-32.459 0c6.88-11.918 24.769-15.237 44.472-9.819C6.769-7.777 2.599-4.501 0 0" style="fill-opacity:1;fill-rule:nonzero;stroke:none" transform="translate(214.93 175.3)" fill="#026841" data-original="#026841"/>
      <path d="M0 0c-4.737 8.205-3.328 18.891 2.748 29.436-25.491 3.106-44.677 16.627-44.677 32.838 0 11.915 10.373 22.371 25.988 28.312a71.506 71.506 0 0 0-5.495 4.939c-21.603 21.603-25.476 52.756-8.65 69.581 16.825 16.826 47.978 12.953 69.581-8.65a71.212 71.212 0 0 0 5.008-5.58c5.941 15.622 16.398 25.999 28.316 25.999 16.188 0 29.695-19.131 32.826-44.567 10.526 6.046 21.186 7.44 29.375 2.712 16.027-9.254 16.518-38.41 1.095-65.123-10.09-17.476-24.49-29.573-37.731-33.261-3.688-13.24-15.785-27.641-33.261-37.731C38.41-16.518 9.253-16.027 0 0Z" style="stroke-width:15;stroke-linecap:round;stroke-linejoin:round;stroke-miterlimit:10;stroke-dasharray:none;stroke-opacity:1" transform="translate(182.47 175.3)" fill="none" stroke="#000000" stroke-width="15" stroke-linecap="round" stroke-linejoin="round" stroke-miterlimit="10" stroke-dasharray="none" stroke-opacity="" data-original="#000000"/>
      <path d="m0 0 98.542-98.542" style="stroke-width:15;stroke-linecap:round;stroke-linejoin:round;stroke-miterlimit:10;stroke-dasharray:none;stroke-opacity:1" transform="translate(202.03 290.759)" fill="none" stroke="#000000" stroke-width="15" stroke-linecap="round" stroke-linejoin="round" stroke-miterlimit="10" stroke-dasharray="none" stroke-opacity="" data-original="#000000"/>
      <path d="M0 0c4.737 8.205 3.328 18.891-2.748 29.436C22.743 32.542 41.93 46.063 41.93 62.274c0 11.915-10.374 22.371-25.989 28.312a71.32 71.32 0 0 1 5.495 4.939c21.603 21.603 25.476 52.756 8.651 69.581-16.826 16.826-47.978 12.953-69.582-8.65a71.414 71.414 0 0 1-5.008-5.58c-5.941 15.622-16.398 26-28.316 26-16.188 0-29.695-19.132-32.826-44.568-10.525 6.046-21.186 7.44-29.375 2.712-16.027-9.253-16.518-38.41-1.095-65.123 10.09-17.476 24.49-29.573 37.731-33.261 3.688-13.24 15.785-27.641 33.261-37.731C-38.41-16.518-9.253-16.027 0 0" style="fill-opacity:1;fill-rule:nonzero;stroke:none" transform="translate(418.698 181.682)" fill="#68ca44" data-original="#68ca44"/>
      <path d="M0 0c4.737 8.205 3.328 18.891-2.748 29.436C22.743 32.542 41.93 46.063 41.93 62.274c0 11.915-10.374 22.371-25.989 28.312a71.32 71.32 0 0 1 5.495 4.939c21.603 21.603 25.476 52.756 8.651 69.581-16.826 16.826-47.978 12.953-69.582-8.65a71.414 71.414 0 0 1-5.008-5.58c-5.941 15.622-16.398 26-28.316 26-16.188 0-29.695-19.132-32.826-44.568-10.525 6.046-21.186 7.44-29.375 2.712-16.027-9.253-16.518-38.41-1.095-65.123 10.09-17.476 24.49-29.573 37.731-33.261 3.688-13.24 15.785-27.641 33.261-37.731C-38.41-16.518-9.253-16.027 0 0Z" style="stroke-width:15;stroke-linecap:round;stroke-linejoin:round;stroke-miterlimit:10;stroke-dasharray:none;stroke-opacity:1" transform="translate(418.698 181.682)" fill="none" stroke="#000000" stroke-width="15" stroke-linecap="round" stroke-linejoin="round" stroke-miterlimit="10" stroke-dasharray="none" stroke-opacity="" data-original="#000000"/>
      <path d="m0 0-98.542-98.542" style="stroke-width:15;stroke-linecap:round;stroke-linejoin:round;stroke-miterlimit:10;stroke-dasharray:none;stroke-opacity:1" transform="translate(399.137 297.142)" fill="none" stroke="#000000" stroke-width="15" stroke-linecap="round" stroke-linejoin="round" stroke-miterlimit="10" stroke-dasharray="none" stroke-opacity="" data-original="#000000"/>
      <path d="M0 0c31.112-31.112 80.746-32.415 113.409-3.908 2.333 2.036 2.468 5.621.278 7.811L3.904 113.687c-2.19 2.189-5.776 2.055-7.812-.279C-32.415 80.745-31.112 31.112 0 0" style="fill-opacity:1;fill-rule:nonzero;stroke:none" transform="translate(307.613 175.343)" fill="#ffffff" data-original="#ffffff"/>
      <path d="M0 0c31.112-31.112 80.746-32.415 113.409-3.908 2.333 2.036 2.468 5.621.278 7.811L3.904 113.687c-2.19 2.189-5.776 2.055-7.812-.279C-32.415 80.745-31.112 31.112 0 0Z" style="stroke-width:15;stroke-linecap:round;stroke-linejoin:round;stroke-miterlimit:10;stroke-dasharray:none;stroke-opacity:1" transform="translate(307.613 175.343)" fill="none" stroke="#000000" stroke-width="15" stroke-linecap="round" stroke-linejoin="round" stroke-miterlimit="10" stroke-dasharray="none" stroke-opacity="" data-original="#000000"/>
      <path d="M0 0c17.164-17.164 44.991-17.164 62.155 0L0 62.155C-17.164 44.991-17.164 17.164 0 0" style="fill-opacity:1;fill-rule:nonzero;stroke:none" transform="translate(335.33 203.061)" fill="#fddf30" data-original="#fddf30"/>
      <path d="M0 0c-14.303 14.304-16.676 36.009-7.14 52.78l-9.375 9.375c-17.163-17.163-17.163-44.991 0-62.155C-5.823-10.692 9.007-14.72 22.82-12.091A43.743 43.743 0 0 0 0 0" style="fill-opacity:1;fill-rule:nonzero;stroke:none" transform="translate(351.845 203.06)" fill="#fed402" data-original="#fed402"/>
      <path d="M0 0c17.164-17.164 44.991-17.164 62.155 0L0 62.155C-17.164 44.991-17.164 17.164 0 0Z" style="stroke-width:15;stroke-linecap:round;stroke-linejoin:round;stroke-miterlimit:10;stroke-dasharray:none;stroke-opacity:1" transform="translate(335.33 203.061)" fill="none" stroke="#000000" stroke-width="15" stroke-linecap="round" stroke-linejoin="round" stroke-miterlimit="10" stroke-dasharray="none" stroke-opacity="" data-original="#000000"/>
      <path d="M0 0c-21.053 0-38.119 17.066-38.119 38.119 0 21.052 17.066 38.119 38.119 38.119s38.119-17.067 38.119-38.119C38.119 17.066 21.053 0 0 0m0 101.948c-35.251 0-63.829-28.577-63.829-63.829 0-35.252 28.578-63.828 63.829-63.828 35.251 0 63.829 28.576 63.829 63.828S35.251 101.948 0 101.948" style="fill-opacity:1;fill-rule:nonzero;stroke:none" transform="translate(237.168 157.034)" fill="#fed2a4" data-original="#fed2a4"/>
      <path d="M0 0c-21.053 0-38.119 17.066-38.119 38.119 0 21.052 17.066 38.119 38.119 38.119s38.119-17.067 38.119-38.119C38.119 17.066 21.053 0 0 0Zm0 101.948c-35.251 0-63.829-28.577-63.829-63.829 0-35.252 28.578-63.828 63.829-63.828 35.251 0 63.829 28.576 63.829 63.828S35.251 101.948 0 101.948z" style="stroke-width:15;stroke-linecap:round;stroke-linejoin:round;stroke-miterlimit:10;stroke-dasharray:none;stroke-opacity:1" transform="translate(237.168 157.034)" fill="none" stroke="#000000" stroke-width="15" stroke-linecap="round" stroke-linejoin="round" stroke-miterlimit="10" stroke-dasharray="none" stroke-opacity="" data-original="#000000"/>
      <path d="M0 0h142.051c1.937 0 3.863.36 5.654 1.1 69.96 28.885 120.059 96.106 124.115 175.488.291 5.684-4.299 10.43-9.991 10.43h-381.607c-5.691 0-10.282-4.746-9.991-10.43C-125.712 97.206-75.613 29.985-5.653 1.1-3.863.36-1.937 0 0 0" style="fill-opacity:1;fill-rule:nonzero;stroke:none" transform="translate(181.155 7.5)" fill="#d8ecfe" data-original="#d8ecfe"/>
      <path d="M0 0c-.291 5.684 4.299 10.43 9.991 10.43h-38.012c-5.691 0-10.282-4.746-9.991-10.43 4.056-79.382 54.156-146.603 124.116-175.489a14.813 14.813 0 0 1 5.653-1.099h38.012c-1.937 0-3.863.36-5.653 1.099C54.156-146.603 4.057-79.382 0 0" style="fill-opacity:1;fill-rule:nonzero;stroke:none" transform="translate(89.398 184.088)" fill="#c4e2ff" data-original="#c4e2ff"/>
      <path d="M0 0h-381.607c-5.691 0-10.282-4.746-9.991-10.43a200.926 200.926 0 0 1 5.267-36.598H4.724A200.926 200.926 0 0 1 9.991-10.43C10.282-4.746 5.691 0 0 0" style="fill-opacity:1;fill-rule:nonzero;stroke:none" transform="translate(442.984 194.518)" fill="#eaf6ff" data-original="#eaf6ff"/>
      <path d="M0 0a200.938 200.938 0 0 1 5.268-36.599H43.28A200.938 200.938 0 0 0 38.012 0c-.29 5.684 4.3 10.43 9.991 10.43H9.991C4.3 10.43-.291 5.684 0 0" style="fill-opacity:1;fill-rule:nonzero;stroke:none" transform="translate(51.386 184.088)" fill="#d8ecfe" data-original="#d8ecfe"/>
      <path d="M0 0h76.708" style="stroke-width:15;stroke-linecap:round;stroke-linejoin:round;stroke-miterlimit:10;stroke-dasharray:none;stroke-opacity:1" transform="translate(371 147.49)" fill="none" stroke="#000000" stroke-width="15" stroke-linecap="round" stroke-linejoin="round" stroke-miterlimit="10" stroke-dasharray="none" stroke-opacity="" data-original="#000000"/>
      <path d="M0 0h278.347" style="stroke-width:15;stroke-linecap:round;stroke-linejoin:round;stroke-miterlimit:10;stroke-dasharray:none;stroke-opacity:1" transform="translate(56.653 147.49)" fill="none" stroke="#000000" stroke-width="15" stroke-linecap="round" stroke-linejoin="round" stroke-miterlimit="10" stroke-dasharray="none" stroke-opacity="" data-original="#000000"/>
      <path d="M0 0h142.051c1.937 0 3.863.36 5.654 1.1 69.96 28.885 120.059 96.106 124.115 175.488.291 5.684-4.299 10.43-9.991 10.43h-381.607c-5.691 0-10.282-4.746-9.991-10.43C-125.712 97.206-75.613 29.985-5.653 1.1-3.863.36-1.937 0 0 0Z" style="stroke-width:15;stroke-linecap:round;stroke-linejoin:round;stroke-miterlimit:10;stroke-dasharray:none;stroke-opacity:1" transform="translate(181.155 7.5)" fill="none" stroke="#000000" stroke-width="15" stroke-linecap="round" stroke-linejoin="round" stroke-miterlimit="10" stroke-dasharray="none" stroke-opacity="" data-original="#000000"/>
      <path d="M0 0c2.42.649 4.001 2.991 3.671 5.475A46.767 46.767 0 0 1-9.674 32.484a46.774 46.774 0 0 1-27.01 13.346c-2.483.329-4.825-1.251-5.474-3.672l-13.19-49.224c-.996-3.718 2.406-7.12 6.123-6.123z" style="fill-opacity:1;fill-rule:nonzero;stroke:none" transform="translate(378.42 458.627)" fill="#fd9a01" data-original="#fd9a01"/>
      <path d="m0 0 12.792 47.743a46.867 46.867 0 0 1-15.993 5.153c-2.484.33-4.825-1.251-5.474-3.671L-21.865 0c-.996-3.717 2.406-7.119 6.123-6.123L-.13-1.94A4.996 4.996 0 0 0 0 0" style="fill-opacity:1;fill-rule:nonzero;stroke:none" transform="translate(344.938 451.56)" fill="#fb8801" data-original="#fb8801"/>
      <path d="M0 0c2.42.649 4.001 2.991 3.671 5.475A46.767 46.767 0 0 1-9.674 32.484a46.774 46.774 0 0 1-27.01 13.346c-2.483.329-4.825-1.251-5.474-3.672l-13.19-49.224c-.996-3.718 2.406-7.12 6.123-6.123z" style="stroke-width:15;stroke-linecap:round;stroke-linejoin:round;stroke-miterlimit:10;stroke-dasharray:none;stroke-opacity:1" transform="translate(378.42 458.627)" fill="none" stroke="#000000" stroke-width="15" stroke-linecap="round" stroke-linejoin="round" stroke-miterlimit="10" stroke-dasharray="none" stroke-opacity="" data-original="#000000"/>
    </g>
  </g>
</svg>
